# xmcd CD database file
#
# Track frame offsets:
#	150
#	20380
#	43133
#	55240
#	73903
#	91965
#	107005
#	120530
#	133103
#	151560
#	166943
#	185970
#	202615
#
# Disc length: 2993 seconds
#
# Revision: 11
# Processed by: cddbd v1.5.2PL0 Copyright (c) Steve Scherf et al.
# Submitted via: CDex 1.70beta3
#
DISCID=ab0baf0d
DTITLE=The Who - The Who By Numbers
DYEAR=1975
DGENRE=Rock
TTITLE0=Slip Kid
TTITLE1=However Much I Booze
TTITLE2=Squeeze Box
TTITLE3=Dreaming From The Waist
TTITLE4=Imagine A Man
TTITLE5=Success Story
TTITLE6=They Are All In Love - Feat. Nicky Hopkins
TTITLE7=Blue Red And Grey
TTITLE8=How Many Friends
TTITLE9=In A Hand Or A Face
TTITLE10=Squeeze Box (Live)
TTITLE11=Behind Blue Eyes (Live)
TTITLE12=Dreaming From The Waist (Live)
EXTD=YEAR: 1975
EXTT0=
EXTT1=
EXTT2=
EXTT3=
EXTT4=
EXTT5=
EXTT6=
EXTT7=
EXTT8=
EXTT9=
EXTT10=
EXTT11=
EXTT12=
PLAYORDER=
